<?xml version="1.0" encoding="UTF-8" standalone="no"?>
<svg
   xmlns:dc="http://purl.org/dc/elements/1.1/"
   xmlns:cc="http://creativecommons.org/ns#"
   xmlns:rdf="http://www.w3.org/1999/02/22-rdf-syntax-ns#"
   xmlns:svg="http://www.w3.org/2000/svg"
   xmlns="http://www.w3.org/2000/svg"
   height="145.25204"
   width="110.40612"
   xml:space="preserve"
   enable-background="new 606 0 339 500"
   viewBox="606 0 110.40612 145.25204"
   y="0px"
   x="0px"
   id="Layer_1"
   version="1.1"><metadata
     id="metadata4437"><rdf:RDF><cc:Work
         rdf:about=""><dc:format>image/svg+xml</dc:format><dc:type
           rdf:resource="http://purl.org/dc/dcmitype/StillImage" /><dc:title></dc:title></cc:Work></rdf:RDF></metadata><defs
     id="defs4435" /><g
     transform="matrix(0.42205357,0,0,0.42205357,555.66947,-29.731361)"
     id="g4327"><path
       style="fill:#f4dd57"
       id="path4329"
       d="m 250.5,266.6 c 12.9,-13.3 26.4,-25.1 37.2,-39 14.7,-19 10.1,-46.4 -8.2,-61.4 -18.1,-14.8 -43.9,-14 -60.9,1.9 -17.6,16.6 -20.3,43.2 -4.6,61.8 10.6,12.6 23.2,23.5 36.5,36.7 z" /><g
       id="g4331"><linearGradient
         gradientTransform="translate(130.45,0)"
         y2="234.0289"
         x2="250.3463"
         y1="234.0289"
         x1="-11.2464"
         gradientUnits="userSpaceOnUse"
         id="SVGID_1_"><stop
           id="stop4334"
           style="stop-color:#A4D6D4"
           offset="0" /><stop
           id="stop4336"
           style="stop-color:#45C1F1"
           offset="1" /></linearGradient><path
         style="fill:url(#SVGID_1_)"
         id="path4338"
         d="M 366.8,143 C 342.4,94.4 289.9,65.3 237.6,71.2 c -57.4,6.5 -101.5,44.9 -114.9,100 -12.4,50.7 9.7,97.4 49.3,133.7 13,11.9 23.2,24.8 35.9,39.7 34.5,-34.3 68.1,-62.9 98.8,-95.9 26.6,-28.7 23.1,-73.4 -5.1,-100.8 -27.6,-26.8 -72.8,-27.6 -101.4,-1.9 -28.9,26 -33.3,70.3 -8.8,100.8 10.9,13.7 23.9,25.6 38.4,40.9 -7.1,5.1 -13.4,9.7 -19.9,14.4 -53.9,-38.7 -76,-86 -53.5,-140.1 16.5,-39.8 47.9,-60.9 90.9,-62.1 43.9,-1.2 76.7,19.2 95,58.8 18.2,39.6 12.4,78 -16.9,110.5 -24.5,27.1 -51.2,52.1 -77.2,77.9 -2.7,2.7 -6,5.4 -8.8,7.8 l 0,0 c -4.4,4.4 -9.5,8.7 -14.3,12.7 l 2.7,3.7 -1.8,1.3 c -3.7,2.6 -13.9,11.4 -12.5,17.1 0.2,0.9 0.6,1.8 1.1,2.5 1.3,2.1 7.2,8.1 18.4,3.9 2,-0.8 4,-1.8 6.2,-3.2 8.1,-4.9 15.5,-11 21.6,-17.8 l 0,0 c 27.9,-27.7 56,-55.2 83.3,-83.5 39,-40.1 47.6,-98.9 22.7,-148.6 z m -152.4,86.2 c -15.5,-18.4 -12.9,-44.7 4.5,-61 16.7,-15.7 42.3,-16.5 60.1,-1.8 18.1,14.8 22.6,41.8 8.1,60.6 -10.6,13.7 -24,25.3 -36.7,38.5 -13.1,-13.1 -25.6,-23.9 -36,-36.3 z" /><linearGradient
         gradientTransform="translate(130.45,0)"
         y2="391.87769"
         x2="77.4021"
         y1="391.87769"
         x1="28.5874"
         gradientUnits="userSpaceOnUse"
         id="SVGID_2_"><stop
           id="stop4341"
           style="stop-color:#A4D6D4"
           offset="0" /><stop
           id="stop4343"
           style="stop-color:#A1D6D6"
           offset="0.3948" /><stop
           id="stop4345"
           style="stop-color:#98D3DA"
           offset="0.601" /><stop
           id="stop4347"
           style="stop-color:#87CEE0"
           offset="0.7635" /><stop
           id="stop4349"
           style="stop-color:#6BC8E9"
           offset="0.9024" /><stop
           id="stop4351"
           style="stop-color:#45C1F1"
           offset="1" /></linearGradient><path
         style="fill:url(#SVGID_2_)"
         id="path4353"
         d="m 185.1,379.7 c -13.2,-2.4 -21,-7.1 -20.7,-10.6 l -5.3,30.6 c -0.4,3.5 7.4,8.3 20.7,10.7 l 24,4.2 4.1,-23.7 -6.2,-8.3 -16.6,-2.9 z" /><linearGradient
         gradientTransform="translate(130.45,0)"
         y2="370.77771"
         x2="94.2118"
         y1="370.77771"
         x1="63.294201"
         gradientUnits="userSpaceOnUse"
         id="SVGID_3_"><stop
           id="stop4356"
           style="stop-color:#A4D6D4"
           offset="0" /><stop
           id="stop4358"
           style="stop-color:#A1D6D6"
           offset="0.3948" /><stop
           id="stop4360"
           style="stop-color:#98D3DA"
           offset="0.601" /><stop
           id="stop4362"
           style="stop-color:#87CEE0"
           offset="0.7635" /><stop
           id="stop4364"
           style="stop-color:#6BC8E9"
           offset="0.9024" /><stop
           id="stop4366"
           style="stop-color:#45C1F1"
           offset="1" /></linearGradient><path
         style="fill:url(#SVGID_3_)"
         id="path4368"
         d="m 224.7,371 -1.5,-2 -15.9,-21.2 c 0,0 -0.1,0 -0.2,0.1 -1,0.8 -1.9,1.5 -2.8,2.2 l 0,0 c -4.4,3.7 -11.9,11.1 -10.4,17.2 0.3,1.2 0.8,2.3 1.4,3.2 l 9.5,12.7 3.5,4.7 4.3,5.8 c -0.6,-0.9 -1.1,-2 -1.4,-3.2 -1.9,-8.5 13.5,-19.5 13.5,-19.5 z" /><linearGradient
         gradientTransform="translate(130.45,0)"
         y2="368.87769"
         x2="69.269096"
         y1="368.87769"
         x1="36.3083"
         gradientUnits="userSpaceOnUse"
         id="SVGID_4_"><stop
           id="stop4371"
           style="stop-color:#94D1D3"
           offset="0" /><stop
           id="stop4373"
           style="stop-color:#3CA2C9"
           offset="0.4506" /></linearGradient><path
         style="fill:url(#SVGID_4_)"
         id="path4375"
         d="m 175.3,365.5 c -0.4,0 -0.7,0.1 -1,0.1 l 0,0 c -0.3,0 -0.6,0.1 -1,0.1 -0.1,0 -0.3,0 -0.4,0 -2.1,0.1 -5.1,0.4 -6,2.6 -0.4,1 0.5,2.3 2.3,3.6 2.8,1.9 8.1,4.1 16.3,5.6 l 14.3,2.5 -6.3,-8.4 c -0.7,-1.2 -1.3,-2.5 -1.6,-3.9 -0.8,-3.3 0.3,-6.7 2.4,-10 -6.8,4.9 -11.1,6.6 -19,7.8 z" /></g></g></svg>