<?xml version="1.0" encoding="utf-8"?>
<!-- Generator: Adobe Illustrator 21.0.0, SVG Export Plug-In . SVG Version: 6.00 Build 0)  -->
<svg version="1.1" id="Layer_1" xmlns="http://www.w3.org/2000/svg" xmlns:xlink="http://www.w3.org/1999/xlink" x="0px" y="0px"
	 viewBox="0 0 720 160.4" style="enable-background:new 0 0 720 160.4;" xml:space="preserve">
<style type="text/css">
	.st0{fill:#4E4F54;}
	.st1{fill:none;stroke:#4E4F54;stroke-width:0.8491;stroke-miterlimit:10;}
	.st2{fill:#2B738C;}
	.st3{fill:#F68C4F;}
	.st4{fill:#FCCD34;}
	.st5{fill:#00A68C;}
	.st6{fill:#BDD64C;}
	.st7{fill:#94999C;}
</style>
<path class="st0" d="M200.6,100.8h22c12.5,0,15.7-4.9,15.7-11.1c0-7.3-5-11.4-16.3-11.4h-21.5V100.8z M200.6,71.1h23.5
	c7.7,0,12.4-2.9,12.4-9.7c0-5.9-2.9-9.9-15.5-9.9h-20.4V71.1z M191.4,44.2h30.1c17.4,0,24.1,5.2,24.1,16.1c0,8.1-4.5,12.6-12.7,14.1
	v0.3c10.3,1.2,15.1,8,15.1,15.6c0,9.5-7,17.8-24.3,17.8h-32.3V44.2z"/>
<path class="st1" d="M200.6,100.8h22c12.5,0,15.7-4.9,15.7-11.1c0-7.3-5-11.4-16.3-11.4h-21.5V100.8z M200.6,71.1h23.5
	c7.7,0,12.4-2.9,12.4-9.7c0-5.9-2.9-9.9-15.5-9.9h-20.4V71.1z M191.4,44.2h30.1c17.4,0,24.1,5.2,24.1,16.1c0,8.1-4.5,12.6-12.7,14.1
	v0.3c10.3,1.2,15.1,8,15.1,15.6c0,9.5-7,17.8-24.3,17.8h-32.3V44.2z"/>
<path class="st0" d="M266,85.9c0,10.1,6.5,17.8,18.6,17.8c12.1,0,18.6-7.8,18.6-17.8c0-10.1-6.5-17.8-18.6-17.8
	C272.4,68,266,75.8,266,85.9 M284.5,109.7c-18,0-27.8-8.7-27.8-23.8c0-14.4,9.2-23.9,27.8-23.9c18,0,27.8,8.7,27.8,23.9
	C312.3,101.1,302.5,109.7,284.5,109.7"/>
<path class="st1" d="M266,85.9c0,10.1,6.5,17.8,18.6,17.8c12.1,0,18.6-7.8,18.6-17.8c0-10.1-6.5-17.8-18.6-17.8
	C272.4,68,266,75.8,266,85.9z M284.5,109.7c-18,0-27.8-8.7-27.8-23.8c0-14.4,9.2-23.9,27.8-23.9c18,0,27.8,8.7,27.8,23.9
	C312.3,101.1,302.5,109.7,284.5,109.7z"/>
<path class="st0" d="M370.9,98v10.1h-8.1v-7.9h-0.2c-5,6.8-11.4,9.5-19.3,9.5c-12.5,0-21.5-7-21.5-20.8V63.7h8.7v24.7
	c0,9.9,5.9,15.3,14.2,15.3c8.2,0,17.6-5,17.6-19.1V63.7h8.7V98z"/>
<path class="st1" d="M370.9,98v10.1h-8.1v-7.9h-0.2c-5,6.8-11.4,9.5-19.3,9.5c-12.5,0-21.5-7-21.5-20.8V63.7h8.7v24.7
	c0,9.9,5.9,15.3,14.2,15.3c8.2,0,17.6-5,17.6-19.1V63.7h8.7V98z"/>
<path class="st0" d="M381.8,73.8V63.7h8.1c0,0,0,4.8,0,7.9h0.2c5-6.8,11.4-9.5,19.3-9.5c12.5,0,21.5,7,21.5,20.8V108h-8.7V83.3
	c0-9.9-5.9-15.3-14.2-15.3c-8.2,0-17.6,5-17.6,19.1V108h-8.7V73.8z"/>
<path class="st1" d="M381.8,73.8V63.7h8.1c0,0,0,4.8,0,7.9h0.2c5-6.8,11.4-9.5,19.3-9.5c12.5,0,21.5,7,21.5,20.8V108h-8.7V83.3
	c0-9.9-5.9-15.3-14.2-15.3c-8.2,0-17.6,5-17.6,19.1V108h-8.7V73.8z"/>
<path class="st0" d="M467.1,103.7c10.3,0,17.5-6.6,17.5-17.9c0-11.2-7.2-17.9-17.5-17.9c-10.3,0-17.5,6.6-17.5,17.9
	C449.6,97.1,456.8,103.7,467.1,103.7 M484.6,44.2h8.7v53.4v10.4h-8.7v-6.3c-4.5,5.1-11.6,8-19.4,8c-13.3,0-24.7-9.5-24.7-23.9
	c0-14.4,11.5-23.9,24.7-23.9c7.1,0,14,1.7,19.4,7.5V44.2z"/>
<path class="st1" d="M467.1,103.7c10.3,0,17.5-6.6,17.5-17.9c0-11.2-7.2-17.9-17.5-17.9c-10.3,0-17.5,6.6-17.5,17.9
	C449.6,97.1,456.8,103.7,467.1,103.7z M484.6,44.2h8.7v53.4v10.4h-8.7v-6.3c-4.5,5.1-11.6,8-19.4,8c-13.3,0-24.7-9.5-24.7-23.9
	c0-14.4,11.5-23.9,24.7-23.9c7.1,0,14,1.7,19.4,7.5V44.2z"/>
<rect x="505" y="44.2" class="st0" width="8.5" height="63.8"/>
<rect x="505" y="44.2" class="st1" width="8.5" height="63.8"/>
<path class="st0" d="M564.8,82.2C564.6,71.9,557,68,549.4,68c-8.9,0-15.3,4.3-16.6,14.1H564.8z M574,88.2h-41.5
	c0.9,9.1,6.7,15.5,16.4,15.5c6.3,0,12.9-2.7,14.8-9h9.2c-1.8,11.8-13.8,15-23.6,15c-16.3,0-25.5-8.9-25.5-23
	c0-16.2,9.7-24.7,25.8-24.7c15.7,0,24.4,8.5,24.4,23.5V88.2z"/>
<path class="st1" d="M564.8,82.2C564.6,71.9,557,68,549.4,68c-8.9,0-15.3,4.3-16.6,14.1H564.8z M574,88.2h-41.5
	c0.9,9.1,6.7,15.5,16.4,15.5c6.3,0,12.9-2.7,14.8-9h9.2c-1.8,11.8-13.8,15-23.6,15c-16.3,0-25.5-8.9-25.5-23
	c0-16.2,9.7-24.7,25.8-24.7c15.7,0,24.4,8.5,24.4,23.5V88.2z"/>
<path class="st0" d="M590.5,95.4c0.8,6.2,6.5,8.3,14.3,8.3c9.7,0,14.5-3,14.5-7.7c0-10.3-35.9-2.5-35.9-20.1
	c0-9.8,9.3-13.9,21.5-13.9c9.2,0,21,2.3,21.6,13.2h-8.4c-1.2-5.6-6.2-7.2-12.8-7.2c-7.8,0-13.2,2.6-13.2,6.7c0,3.1,2.8,5,9.4,6.3
	l14.7,2.7c8.3,1.6,12.3,5,12.3,11.7c0,9.5-7.9,14.3-24.6,14.3c-11.8,0-21.9-4-22.5-14.3H590.5z"/>
<path class="st1" d="M590.5,95.4c0.8,6.2,6.5,8.3,14.3,8.3c9.7,0,14.5-3,14.5-7.7c0-10.3-35.9-2.5-35.9-20.1
	c0-9.8,9.3-13.9,21.5-13.9c9.2,0,21,2.3,21.6,13.2h-8.4c-1.2-5.6-6.2-7.2-12.8-7.2c-7.8,0-13.2,2.6-13.2,6.7c0,3.1,2.8,5,9.4,6.3
	l14.7,2.7c8.3,1.6,12.3,5,12.3,11.7c0,9.5-7.9,14.3-24.6,14.3c-11.8,0-21.9-4-22.5-14.3H590.5z"/>
<path class="st0" d="M645,95.4c0.8,6.2,6.4,8.3,14.3,8.3c9.7,0,14.5-3,14.5-7.7c0-10.3-35.9-2.5-35.9-20.1c0-9.8,9.3-13.9,21.6-13.9
	c9.2,0,21,2.3,21.5,13.2h-8.4c-1.2-5.6-6.2-7.2-12.8-7.2c-7.8,0-13.2,2.6-13.2,6.7c0,3.1,2.8,5,9.5,6.3l14.7,2.7
	c8.3,1.6,12.3,5,12.3,11.7c0,9.5-7.9,14.3-24.6,14.3c-11.8,0-21.9-4-22.5-14.3H645z"/>
<path class="st1" d="M645,95.4c0.8,6.2,6.4,8.3,14.3,8.3c9.7,0,14.5-3,14.5-7.7c0-10.3-35.9-2.5-35.9-20.1c0-9.8,9.3-13.9,21.6-13.9
	c9.2,0,21,2.3,21.5,13.2h-8.4c-1.2-5.6-6.2-7.2-12.8-7.2c-7.8,0-13.2,2.6-13.2,6.7c0,3.1,2.8,5,9.5,6.3l14.7,2.7
	c8.3,1.6,12.3,5,12.3,11.7c0,9.5-7.9,14.3-24.6,14.3c-11.8,0-21.9-4-22.5-14.3H645z"/>
<path class="st2" d="M85.6,69.8c-4.1,7.6-1.3,17.1,6.3,21.2c7.6,4.1,17.1,1.3,21.2-6.3c4.1-7.6,1.3-17.1-6.3-21.2
	C99.2,59.4,89.7,62.2,85.6,69.8"/>
<path class="st3" d="M156.7,63.3l-0.4-0.4C156.4,63,156.6,63.1,156.7,63.3L156.7,63.3z"/>
<path class="st4" d="M99.2,35.9c0,0-10.3-9.2-24.8-5.2c-0.2,0-0.3,0.1-0.5,0.1l9.7-9.7c0.2-0.2,0.5-0.5,0.7-0.7l-0.1,0L45.5,59.2
	l0.1,0.3l-0.6,0.6c-4.8,3.9-7.9,9.9-7.9,16.6c0,5,1.7,9.6,4.6,13.2c0.2,0.2,0.3,0.4,0.5,0.6c0.5,0.6,1.1,1.2,1.6,1.8l9.7,9.7
	c0-0.1,0-0.2-0.1-0.2c-4.2-14.7,5.1-25.1,5.1-25.1l0.1-0.1L99.3,36L99.2,35.9z"/>
<path class="st3" d="M73.8,30.8c0.2-0.1,0.3-0.1,0.5-0.1c14.5-4,24.8,5.2,24.8,5.2l0.2,0.2l36.3,36.4c6-9,4.3-21.1,2.7-27.6
	l-22.5-22.5c-3.9-4.8-9.9-7.9-16.6-7.9c-5.8,0-11,2.3-14.9,6c-0.2,0.2-0.5,0.5-0.7,0.7L73.8,30.8z"/>
<path class="st5" d="M41.5,90.1l0.5,0.5C41.9,90.4,41.8,90.2,41.5,90.1L41.5,90.1z"/>
<path class="st6" d="M156.7,63.3c-0.1-0.2-0.3-0.3-0.4-0.5c-0.5-0.6-1-1.1-1.6-1.7l-9.7-9.7c0,0.1,0,0.1,0.1,0.2
	c4.2,14.7-5.1,25.1-5.1,25.1l0,0l-40.8,40.7c0.1,0.1,10.6,9.4,25.3,5.1l29.2-29.2c4.8-3.9,7.9-9.9,7.9-16.6
	C161.4,71.7,159.6,67,156.7,63.3"/>
<path class="st6" d="M112.5,134.2l0.1,0.1l5.2-5.2l-3.1,3.1C114,132.9,113.3,133.6,112.5,134.2"/>
<path class="st5" d="M99.1,117.5L99.1,117.5l-36-36.1c-6,8.7-4.6,20.5-3,27.3L82.5,131c3.9,4.8,9.9,7.9,16.6,7.9
	c5.1,0,9.7-1.8,13.4-4.7c0.8-0.6,1.5-1.3,2.2-2l3.1-3.1l6.7-6.6c0,0,0,0-0.1,0C109.7,126.8,99.2,117.5,99.1,117.5"/>
<path class="st7" d="M453.7,138.5c3.2,0,5.4-2.5,5.4-5.8c0-3.1-2.1-5.5-5.4-5.5c-3.2,0-5.3,2.5-5.3,5.5
	C448.4,136.1,450.5,138.5,453.7,138.5 M453.7,124.7c4.8-0.1,8.3,3.2,8.3,8.1c0,4.8-3.4,8.1-8.3,8.2c-4.8,0-8.2-3.2-8.2-8.1
	C445.5,128,448.9,124.7,453.7,124.7"/>
<path class="st7" d="M477,134.9c0,3.8-2.7,6.1-6.3,6.1c-3.6,0-6.3-2.3-6.3-6.1v-9.8h2.8v9.7c0,1.5,0.8,3.6,3.5,3.6
	c2.7,0,3.5-2,3.5-3.6v-9.7h2.8V134.9z"/>
<path class="st7" d="M485.3,131.7c1.6,0,3.4-0.1,3.4-2.2c0-1.8-1.7-2.1-3.1-2.1h-2.4v4.2H485.3z M480.4,125.1h5.4c3,0,5.8,1,5.8,4.5
	c0,2.2-1.3,3.9-3.6,4.2l4.1,6.9h-3.3l-3.6-6.6h-2v6.6h-2.8V125.1z"/>
<polygon class="st7" points="499,125.1 502,125.1 504.9,136.3 505,136.3 508.4,125.1 511.2,125.1 514.6,136.3 514.6,136.3 
	517.7,125.1 520.5,125.1 516,140.6 513.3,140.6 509.7,128.8 509.7,128.8 506.1,140.6 503.6,140.6 "/>
<path class="st7" d="M530.5,138.5c3.2,0,5.4-2.5,5.4-5.8c0-3.1-2.1-5.5-5.4-5.5c-3.2,0-5.3,2.5-5.3,5.5
	C525.1,136.1,527.3,138.5,530.5,138.5 M530.5,124.7c4.8-0.1,8.3,3.2,8.3,8.1c0,4.8-3.4,8.1-8.3,8.2c-4.8,0-8.2-3.2-8.2-8.1
	C522.3,128,525.7,124.7,530.5,124.7"/>
<path class="st7" d="M546.7,131.7c1.6,0,3.4-0.1,3.4-2.2c0-1.8-1.7-2.1-3.1-2.1h-2.4v4.2H546.7z M541.8,125.1h5.4c3,0,5.8,1,5.8,4.5
	c0,2.2-1.3,3.9-3.6,4.2l4.1,6.9h-3.3l-3.6-6.6h-2v6.6h-2.8V125.1z"/>
<polygon class="st7" points="556,125.1 558.8,125.1 558.8,138.1 565.4,138.1 565.4,140.6 556,140.6 "/>
<path class="st7" d="M573.1,138.1c3.5,0,6.3-1.5,6.3-5.3c0-3.8-2.5-5.3-5.8-5.3h-2.5v10.5H573.1z M568.3,125.1h6.1
	c4.1,0,7.9,2.5,7.9,7.8c0,5.3-4.5,7.8-8.2,7.8h-5.8V125.1z"/>
<rect x="591.4" y="125.1" class="st7" width="2.8" height="15.5"/>
<path class="st7" d="M605.1,128.4c-0.6-0.8-1.6-1.2-2.7-1.2c-1.3,0-2.5,0.6-2.5,2c0,3.1,7.4,1.3,7.4,6.9c0,3.3-2.6,5-5.7,5
	c-1.9,0-3.8-0.6-5.1-2.1l2.1-2c0.7,1,1.8,1.6,3.1,1.6c1.3,0,2.7-0.7,2.7-2.1c0-3.4-7.4-1.5-7.4-7c0-3.2,2.9-4.7,5.7-4.7
	c1.6,0,3.2,0.5,4.5,1.6L605.1,128.4z"/>
<path class="st7" d="M624,138.5c3.2,0,5.4-2.5,5.4-5.8c0-3.1-2.1-5.5-5.4-5.5c-3.2,0-5.3,2.5-5.3,5.5
	C618.7,136.1,620.8,138.5,624,138.5 M624,124.7c4.8-0.1,8.3,3.2,8.3,8.1c0,4.8-3.4,8.1-8.3,8.2c-4.8,0-8.2-3.2-8.2-8.1
	C615.8,128,619.2,124.7,624,124.7"/>
<path class="st7" d="M639.3,131.8c1.6,0,3.6-0.1,3.6-2.2c0-1.9-1.8-2.2-3.3-2.2h-2v4.4H639.3z M634.9,125.1h5.2c3,0,5.7,1.1,5.7,4.5
	c0,3.9-2.9,4.6-6.2,4.6h-2v6.4h-2.8V125.1z"/>
<polygon class="st7" points="648.3,125.1 658.5,125.1 658.5,127.6 651,127.6 651,131.4 658.1,131.4 658.1,133.9 651,133.9 
	651,138.1 658.9,138.1 658.9,140.6 648.3,140.6 "/>
<polygon class="st7" points="661.6,125.1 665.3,125.1 672.8,136.7 672.9,136.7 672.9,125.1 675.6,125.1 675.6,140.6 672.1,140.6 
	664.5,128.7 664.4,128.7 664.4,140.6 661.6,140.6 "/>
</svg>
